<?xml version="1.0" standalone="no"?>
<!DOCTYPE svg PUBLIC "-//W3C//DTD SVG 20010904//EN"
 "http://www.w3.org/TR/2001/REC-SVG-20010904/DTD/svg10.dtd">
<svg version="1.0" xmlns="http://www.w3.org/2000/svg"
 width="512.000000pt" height="512.000000pt" viewBox="0 0 512.000000 512.000000"
 preserveAspectRatio="xMidYMid meet">
<metadata>
Created by potrace 1.14, written by Peter Selinger 2001-2017
</metadata>
<g transform="translate(0.000000,512.000000) scale(0.100000,-0.100000)"
fill="#000000" stroke="none">
<path d="M1015 4795 c-5 -2 -43 -11 -84 -20 -170 -39 -332 -144 -441 -285 -45
-58 -54 -73 -87 -140 -36 -76 -40 -87 -60 -155 -17 -56 -18 -167 -21 -1602 -2
-1371 -1 -1551 13 -1620 21 -103 32 -134 78 -223 109 -208 284 -344 522 -406
l90 -23 1560 2 1560 2 85 29 c271 90 453 276 538 544 l27 87 2 1230 c2 1239 2
1264 -34 1380 -64 212 -228 399 -433 493 -55 26 -179 60 -240 66 -25 3 -344 5
-709 6 -711 1 -689 -1 -737 52 -12 12 -59 97 -104 188 -125 250 -190 321 -350
376 -64 22 -70 23 -615 22 -302 0 -554 -1 -560 -3z"/>
</g>
</svg>
